<mxfile host="app.diagrams.net" modified="2024-07-17T10:27:05.899Z" agent="Mozilla/5.0 (Macintosh; Intel Mac OS X 10_15_7) AppleWebKit/605.1.15 (KHTML, like Gecko) Version/18.0 Safari/605.1.15" etag="5IAQs_RmIEBx5elqAKZh" version="24.7.0" type="device">
  <diagram name="Page-1" id="G-vKmIDVepEi0DZMoPOq">
    <mxGraphModel dx="1183" dy="802" grid="1" gridSize="10" guides="1" tooltips="1" connect="1" arrows="1" fold="1" page="1" pageScale="1" pageWidth="827" pageHeight="1169" math="0" shadow="0">
      <root>
        <mxCell id="0" />
        <mxCell id="1" parent="0" />
        <mxCell id="sCG2avJtby82365DT6G5-1" value="Transaction cần được&lt;div&gt;&lt;font face=&quot;Courier New&quot;&gt;COMMIT&lt;/font&gt;/&lt;font face=&quot;Courier New&quot;&gt;ROLLBACK&lt;/font&gt;/&lt;font face=&quot;Courier New&quot;&gt;KILL&lt;/font&gt;&lt;/div&gt;" style="rounded=1;whiteSpace=wrap;html=1;fontSize=14;" vertex="1" parent="1">
          <mxGeometry x="280" y="160" width="200" height="60" as="geometry" />
        </mxCell>
        <mxCell id="sCG2avJtby82365DT6G5-5" value="Đợi" style="edgeStyle=orthogonalEdgeStyle;rounded=0;orthogonalLoop=1;jettySize=auto;html=1;exitX=0.5;exitY=0;exitDx=0;exitDy=0;entryX=0.5;entryY=1;entryDx=0;entryDy=0;" edge="1" parent="1" source="sCG2avJtby82365DT6G5-2" target="sCG2avJtby82365DT6G5-1">
          <mxGeometry relative="1" as="geometry" />
        </mxCell>
        <mxCell id="sCG2avJtby82365DT6G5-2" value="Tạo metadata lock&lt;div&gt;cho bảng cha&lt;/div&gt;" style="rounded=1;whiteSpace=wrap;html=1;fontSize=14;" vertex="1" parent="1">
          <mxGeometry x="280" y="280" width="200" height="60" as="geometry" />
        </mxCell>
        <mxCell id="sCG2avJtby82365DT6G5-4" value="Đợi" style="edgeStyle=orthogonalEdgeStyle;rounded=0;orthogonalLoop=1;jettySize=auto;html=1;exitX=0.5;exitY=0;exitDx=0;exitDy=0;entryX=0.5;entryY=1;entryDx=0;entryDy=0;" edge="1" parent="1" source="sCG2avJtby82365DT6G5-3" target="sCG2avJtby82365DT6G5-2">
          <mxGeometry relative="1" as="geometry" />
        </mxCell>
        <mxCell id="sCG2avJtby82365DT6G5-3" value="&lt;font face=&quot;Courier New&quot;&gt;ALTER TABLE&lt;/font&gt;" style="rounded=1;whiteSpace=wrap;html=1;fontSize=14;" vertex="1" parent="1">
          <mxGeometry x="280" y="400" width="200" height="60" as="geometry" />
        </mxCell>
        <mxCell id="sCG2avJtby82365DT6G5-10" value="Đợi" style="edgeStyle=orthogonalEdgeStyle;rounded=0;orthogonalLoop=1;jettySize=auto;html=1;exitX=0.5;exitY=0;exitDx=0;exitDy=0;entryX=0.5;entryY=1;entryDx=0;entryDy=0;" edge="1" parent="1" source="sCG2avJtby82365DT6G5-9" target="sCG2avJtby82365DT6G5-3">
          <mxGeometry relative="1" as="geometry" />
        </mxCell>
        <mxCell id="sCG2avJtby82365DT6G5-9" value="Query bảng cha cần&lt;div&gt;&lt;font face=&quot;Courier New&quot;&gt;ALTER TABLE&lt;/font&gt;&lt;/div&gt;&lt;div&gt;và các bảng con có&lt;/div&gt;&lt;div&gt;foreign key tới bảng cha&lt;/div&gt;" style="rounded=1;whiteSpace=wrap;html=1;fontSize=14;" vertex="1" parent="1">
          <mxGeometry x="280" y="520" width="200" height="110" as="geometry" />
        </mxCell>
      </root>
    </mxGraphModel>
  </diagram>
</mxfile>
